<svg xmlns="http://www.w3.org/2000/svg" viewBox="0 0 250 250">
  <!-- Shield left half - Gold -->
  <polygon fill="#FFD700" points="125,30 125,30 125,30 31.9,63.2 46.1,186.3 125,230 125,230 125,230 203.9,186.3 218.1,63.2"/>
  <!-- Shield right half - Darker Gold for depth -->
  <polygon fill="#DAA520" points="125,30 125,52.2 125,52.1 125,153.4 125,153.4 125,230 125,230 203.9,186.3 218.1,63.2 125,30"/>
  <!-- Letter A - Dark gray for contrast -->
  <path fill="#2A2A2A" d="M125,52.1L66.8,182.6h21.7l11.7-29.2h49.4l11.7,29.2h21.7L125,52.1L125,52.1z M142.1,140.3h-34.2l17.1-40.8L142.1,140.3z"/>
</svg>
