<svg width="256" height="256" viewBox="0 0 256 256" xmlns="http://www.w3.org/2000/svg">
  <!-- Neo4j: Network graph with connected nodes -->

  <!-- Center node (larger) -->
  <circle cx="128" cy="128" r="20" fill="none" stroke="#6366F1" stroke-width="3"/>

  <!-- Outer nodes (6 nodes in circular arrangement) -->
  <circle cx="128" cy="60" r="16" fill="none" stroke="#6366F1" stroke-width="3"/>
  <circle cx="186" cy="98" r="16" fill="none" stroke="#6366F1" stroke-width="3"/>
  <circle cx="186" cy="158" r="16" fill="none" stroke="#6366F1" stroke-width="3"/>
  <circle cx="128" cy="196" r="16" fill="none" stroke="#6366F1" stroke-width="3"/>
  <circle cx="70" cy="158" r="16" fill="none" stroke="#6366F1" stroke-width="3"/>
  <circle cx="70" cy="98" r="16" fill="none" stroke="#6366F1" stroke-width="3"/>

  <!-- Relationship lines (connecting center to outer nodes) -->
  <line x1="128" y1="108" x2="128" y2="76" stroke="#6366F1" stroke-width="2"/>
  <line x1="145" y1="118" x2="170" y2="104" stroke="#6366F1" stroke-width="2"/>
  <line x1="145" y1="138" x2="170" y2="152" stroke="#6366F1" stroke-width="2"/>
  <line x1="128" y1="148" x2="128" y2="180" stroke="#6366F1" stroke-width="2"/>
  <line x1="111" y1="138" x2="86" y2="152" stroke="#6366F1" stroke-width="2"/>
  <line x1="111" y1="118" x2="86" y2="104" stroke="#6366F1" stroke-width="2"/>

  <!-- Cross-connections between outer nodes (partial mesh) -->
  <line x1="128" y1="76" x2="170" y2="104" stroke="#6366F1" stroke-width="1.5" opacity="0.5"/>
  <line x1="170" y1="104" x2="170" y2="152" stroke="#6366F1" stroke-width="1.5" opacity="0.5"/>
  <line x1="128" y1="180" x2="86" y2="152" stroke="#6366F1" stroke-width="1.5" opacity="0.5"/>
  <line x1="86" y1="152" x2="86" y2="104" stroke="#6366F1" stroke-width="1.5" opacity="0.5"/>
</svg>
